<svg id="svg515" width="255" height="255" version="1.1" viewBox="0 0 67 67" xmlns="http://www.w3.org/2000/svg"><g id="layer1" fill="#e6e6e6"><path id="path321" d="m34 27c-2-0.46-1.9-1.4-1.9-2.3-0.064-3.9-0.091-7.8-0.12-12-0.012-1.5-0.0018-3.1-0.0018-4.8-1.1 0.32-1.2 1.2-1.7 1.8-0.55 0.67-0.95 1.4-1.6 2-0.22 0.22-0.95 0.33-1.3 0.19-0.33-0.14-0.6-0.65-0.58-0.98 0.027-0.46 0.31-0.93 0.55-1.4 1.5-2.7 3-5.5 4.4-8.2 0.38-0.7 0.83-1.4 1.9-1.2 0.66 0.13 1.4 0.6 1.7 1.1 0.53 0.66 0.78 1.5 1.1 2.2 0.94 2 1.9 4.1 2.8 6.1 0.42 0.89 1.3 2-0.051 2.6-1.5 0.7-2.2-0.58-2.9-1.4-0.32-0.4-0.6-0.82-1.2-1.6-1.1 6-0.38 12-1.3 17"/><path id="path323" d="m34 41c-0.39 6.1-1.4 12-0.45 19 1.6-2.5 2.9-4.5 4.4-6.9 1.3 1.6 1.3 3 0.53 4.4-1.7 2.9-3.4 5.9-5.3 8.7-1.2 1.8-2.8 1.6-3.7-0.34-0.53-1-0.85-2.2-1.2-3.3-0.65-1.8-1.3-3.6-1.9-5.4-0.2-0.58-0.3-1.2-0.49-1.9 2.1 0.019 2.3 1.4 2.9 2.3 0.65 0.95 1.1 2 1.7 3 0.21-0.032 0.41-0.063 0.62-0.095 0-3.3-0.13-6.6 0.042-9.9 0.15-2.8 0.65-5.5 1-8.3 0.1-0.76 0.32-1.5 2-1.2"/><path id="path299" d="m52 37c1.2 0.37 2.3 0.74 3.5 1.1 0.34-0.56 0.062-0.85-0.27-0.98-1.3-0.54-2.7-1-4-1.5-0.47-0.17-1-0.0099-1.1 0.48-0.3 1.2-0.48 2.4-0.69 3.7-0.017 0.1 0.17 0.24 0.33 0.43 0.73-0.76 0.49-1.8 0.95-2.7 1.5 2.5 3.5 4 6.2 4.3 1.9 0.21 3.6-0.26 5.2-1.3 3.1-2.2 4.3-6.3 2.8-9.9-1.5-3.6-5.2-5.6-8.9-4.7-3 0.72-5.5 3.4-5.4 5.8 0.53-0.14 0.59-0.64 0.77-1 1.8-3.9 6.3-5.3 9.9-3.1 2.8 1.7 4 5.4 2.8 8.5-1.3 3.3-4.6 5.1-7.9 4.3-1.8-0.44-3.2-1.4-4.2-3-0.087-0.13-0.27-0.2-0.41-0.29 0.11-0.074 0.22-0.15 0.33-0.22"/><path id="path305" d="m57 6c-1.6-0.32-3-0.62-4.6-0.95 0.51-0.98 1.3-1.2 1.9-1.1 2.2 0.091 4.4 0.17 6.5 0.52 1.7 0.27 1.8 1.4 0.59 2.7-1 1-2.1 2.1-3.1 3.2-0.48 0.53-0.78 1.2-1.2 1.8-0.2 0.27-0.53 0.44-0.79 0.65-0.2-0.36-0.61-0.77-0.56-1.1 0.11-0.59 0.47-1.1 0.75-1.7 0.15-0.29 0.34-0.56 0.73-1.2-0.72 0.33-1.2 0.42-1.4 0.68-1.8 1.6-3.7 3.1-5.2 4.8-3.5 4-6.5 8.3-7.9 14-0.073 0.27-0.15 0.58-0.33 0.78-0.16 0.19-0.48 0.38-0.69 0.34-0.21-0.037-0.51-0.35-0.52-0.56-0.042-0.62-0.097-1.3 0.092-1.9 0.54-1.6 1.1-3.3 1.8-4.8 2.5-5 5.8-9.4 10-13 1.2-0.99 2.5-1.8 3.9-2.8"/><path id="path305-5" d="m57 60c-1.6 0.32-3 0.62-4.6 0.95 0.51 0.98 1.3 1.2 1.9 1.1 2.2-0.091 4.4-0.17 6.5-0.52 1.7-0.27 1.8-1.4 0.59-2.7-1-1-2.1-2.1-3.1-3.2-0.48-0.53-0.78-1.2-1.2-1.8-0.2-0.27-0.53-0.44-0.79-0.65-0.2 0.36-0.61 0.77-0.56 1.1 0.11 0.59 0.47 1.1 0.75 1.7 0.15 0.29 0.34 0.56 0.73 1.2-0.72-0.33-1.2-0.42-1.4-0.68-1.8-1.6-3.7-3.1-5.2-4.8-3.5-4-6.5-8.3-7.9-14-0.073-0.27-0.15-0.58-0.33-0.78-0.16-0.19-0.48-0.38-0.69-0.34-0.21 0.037-0.51 0.35-0.52 0.56-0.042 0.62-0.097 1.3 0.092 1.9 0.54 1.6 1.1 3.3 1.8 4.8 2.5 5 5.8 9.4 10 13 1.2 0.99 2.5 1.8 3.9 2.8"/><path id="path299-2" d="m15 37c-1.2 0.37-2.3 0.74-3.5 1.1-0.34-0.56-0.062-0.85 0.27-0.98 1.3-0.54 2.7-1 4-1.5 0.47-0.17 1-0.0099 1.1 0.48 0.3 1.2 0.48 2.4 0.69 3.7 0.017 0.1-0.17 0.24-0.33 0.43-0.73-0.76-0.49-1.8-0.95-2.7-1.5 2.5-3.5 4-6.2 4.3-1.9 0.21-3.6-0.26-5.2-1.3-3.1-2.2-4.3-6.3-2.8-9.9 1.5-3.6 5.2-5.6 8.9-4.7 3 0.72 5.5 3.4 5.4 5.8-0.53-0.14-0.59-0.64-0.77-1-1.8-3.9-6.3-5.3-9.9-3.1-2.8 1.7-4 5.4-2.8 8.5 1.3 3.3 4.6 5.1 7.9 4.3 1.8-0.44 3.2-1.4 4.2-3 0.087-0.13 0.27-0.2 0.41-0.29-0.11-0.074-0.22-0.15-0.33-0.22"/><path id="path305-3" d="m9.2 6c1.6-0.32 3-0.62 4.6-0.95-0.51-0.98-1.3-1.2-1.9-1.1-2.2 0.091-4.4 0.17-6.5 0.52-1.7 0.27-1.8 1.4-0.59 2.7 1 1 2.1 2.1 3.1 3.2 0.48 0.53 0.78 1.2 1.2 1.8 0.2 0.27 0.53 0.44 0.79 0.65 0.2-0.36 0.61-0.77 0.56-1.1-0.11-0.59-0.47-1.1-0.75-1.7-0.15-0.29-0.34-0.56-0.73-1.2 0.72 0.33 1.2 0.42 1.4 0.68 1.8 1.6 3.7 3.1 5.2 4.8 3.5 4 6.5 8.3 7.9 14 0.073 0.27 0.15 0.58 0.33 0.78 0.16 0.19 0.48 0.38 0.69 0.34 0.21-0.037 0.51-0.35 0.52-0.56 0.042-0.62 0.097-1.3-0.092-1.9-0.54-1.6-1.1-3.3-1.8-4.8-2.5-5-5.8-9.4-10-13-1.2-0.99-2.5-1.8-3.9-2.8"/><path id="path305-5-7" d="m9.2 60c1.6 0.32 3 0.62 4.6 0.95-0.51 0.98-1.3 1.2-1.9 1.1-2.2-0.091-4.4-0.17-6.5-0.52-1.7-0.27-1.8-1.4-0.59-2.7 1-1 2.1-2.1 3.1-3.2 0.48-0.53 0.78-1.2 1.2-1.8 0.2-0.27 0.53-0.44 0.79-0.65 0.2 0.36 0.61 0.77 0.56 1.1-0.11 0.59-0.47 1.1-0.75 1.7-0.15 0.29-0.34 0.56-0.73 1.2 0.72-0.33 1.2-0.42 1.4-0.68 1.8-1.6 3.7-3.1 5.2-4.8 3.5-4 6.5-8.3 7.9-14 0.073-0.27 0.15-0.58 0.33-0.78 0.16-0.19 0.48-0.38 0.69-0.34 0.21 0.037 0.51 0.35 0.52 0.56 0.042 0.62 0.097 1.3-0.092 1.9-0.54 1.6-1.1 3.3-1.8 4.8-2.5 5-5.8 9.4-10 13-1.2 0.99-2.5 1.8-3.9 2.8"/></g></svg>
